# xmcd CD database file
#
# Track frame offsets:
#	150
#	43293
#	84277
#	109720
#	150976
#	194937
#
# Disc length: 2839 seconds
#
# Revision: 0
# Processed by: cddbd v1.5.2PL0 Copyright (c) Steve Scherf et al.
# Submitted via: CDex 1.51
#
DISCID=480b1506
DTITLE=Z - Mikabe
DYEAR=2006
DGENRE=Jazz
TTITLE0=Gohyaku Manyen
TTITLE1=Mugen
TTITLE2=Zushiki Man
TTITLE3=Ikusa
TTITLE4=Netsumonogatari
TTITLE5=Daikainenten
EXTD=YEAR: 2006
EXTT0=
EXTT1=
EXTT2=
EXTT3=
EXTT4=
EXTT5=
PLAYORDER=
